<?xml version="1.0" standalone="no"?><!DOCTYPE svg PUBLIC "-//W3C//DTD SVG 1.1//EN" "http://www.w3.org/Graphics/SVG/1.1/DTD/svg11.dtd"><svg t="1579423172670" class="icon" viewBox="0 0 1024 1024" version="1.1" xmlns="http://www.w3.org/2000/svg" p-id="9007" xmlns:xlink="http://www.w3.org/1999/xlink" width="200" height="200"><defs><style type="text/css"></style></defs><path d="M759.807959 266.751956a119.466647 119.466647 0 0 1-78.847987-76.970654c-21.84533-68.266655 17.066664-104.447983 17.066664-104.447983a123.221313 123.221313 0 0 1 77.14132 75.605321 110.933315 110.933315 0 0 1-15.359997 105.813316zM612.181317 487.935919a135.509311 135.509311 0 0 1-106.666649-64.682656c-41.471993-69.290655-8.021332-119.466647-8.021332-119.466647a139.263977 139.263977 0 0 1 104.447982 63.658656 125.439979 125.439979 0 0 1 10.239999 120.490647z" fill="#258450" p-id="9008"></path><path d="M582.997322 657.066557a17.066664 17.066664 0 0 1-17.066664-17.066664 655.701224 655.701224 0 0 1 74.922654-266.581289c67.071989-119.466647 143.871976-166.399972 147.114642-168.277305a17.066664 17.066664 0 1 1 17.066664 29.183995s-72.533321 44.885326-134.826644 155.818641a631.466561 631.466561 0 0 0-70.655989 251.221291 17.066664 17.066664 0 0 1-16.554663 15.701331z" fill="#1A5B3E" p-id="9009"></path><path d="M712.191967 295.082617a134.826644 134.826644 0 0 1 117.077313-41.130659c79.530653 11.775998 96.938651 69.119988 96.938651 69.119988s-31.914661 46.421326-114.346648 37.205327a126.975979 126.975979 0 0 1-99.669316-65.194656z" fill="#42B275" p-id="9010"></path><path d="M611.49865 471.551921a136.533311 136.533311 0 0 1 107.007982-74.922654c86.698652-10.922665 124.757313 41.471993 124.757313 41.471993A140.799977 140.799977 0 0 1 738.303962 511.999915a146.431976 146.431976 0 0 1-126.805312-40.447994z" fill="#329664" p-id="9011"></path><path d="M776.533289 236.373294a134.826644 134.826644 0 0 1 47.786659-114.517314c61.95199-51.199991 116.223981-25.599996 116.223981-25.599996a138.58131 138.58131 0 0 1-47.103993 112.298648 124.757313 124.757313 0 0 1-116.906647 27.818662z" fill="#42B275" p-id="9012"></path><path d="M682.666638 353.621274a127.658645 127.658645 0 0 1-89.941318-75.60532c-28.671995-70.485322 9.727998-112.298648 9.727998-112.298648a131.413311 131.413311 0 0 1 88.063986 74.410654 118.27198 118.27198 0 0 1-7.850666 113.493314z" fill="#329664" p-id="9013"></path><path d="M386.389354 366.079939A140.799977 140.799977 0 0 0 273.066706 307.199949c-83.455986-1.365333-110.933315 51.199991-110.933314 51.199991s25.599996 50.175992 110.933314 54.442658a134.143978 134.143978 0 0 0 113.322648-46.762659z" fill="#258450" p-id="9014"></path><path d="M442.368012 671.914555h-1.024a17.066664 17.066664 0 0 1-15.871998-18.090664 645.802559 645.802559 0 0 0-34.133327-211.626631c-36.522661-115.029314-75.775987-164.693306-76.117321-165.03464A17.066664 17.066664 0 0 1 342.186695 255.999957c1.706666 2.218666 43.519993 54.271991 82.26132 176.298638a665.599889 665.599889 0 0 1 34.133327 224.085296 17.066664 17.066664 0 0 1-16.21333 15.530664z" fill="#1A5B3E" p-id="9015"></path><path d="M364.373358 321.36528a113.493314 113.493314 0 0 0 97.45065-58.709324 119.466647 119.466647 0 0 0 4.778666-117.75998 141.311976 141.311976 0 0 0-99.839983 65.023989 108.031982 108.031982 0 0 0-2.389333 111.445315z" fill="#42B275" p-id="9016"></path><path d="M441.002678 553.813241a127.999979 127.999979 0 0 0-85.333319-90.453318c-79.871987-28.671995-128.170645 10.239998-128.170645 10.239998a131.754645 131.754645 0 0 0 83.28532 88.575985 150.357308 150.357308 0 0 0 130.218644-8.362665z" fill="#258450" p-id="9017"></path><path d="M341.333362 284.501286a128.341312 128.341312 0 0 0-53.247991-110.762648C221.866715 125.610646 167.082724 152.234641 167.082724 152.234641a131.925311 131.925311 0 0 0 52.394658 108.543982A136.533311 136.533311 0 0 0 341.333362 284.501286z" fill="#42B275" p-id="9018"></path><path d="M412.330683 443.733259a136.533311 136.533311 0 0 0 110.591982-48.469325c47.786659-59.39199 20.82133-108.714649 20.82133-108.714648a140.458643 140.458643 0 0 0-108.373316 47.786658A110.591982 110.591982 0 0 0 412.330683 443.733259z" fill="#329664" p-id="9019"></path><path d="M660.479975 1023.999829H363.520025a47.786659 47.786659 0 0 1-47.445326-42.325326L273.066706 609.791898h477.866588l-42.837327 371.882605A47.786659 47.786659 0 0 1 660.479975 1023.999829z" fill="#685245" p-id="9020"></path><path d="M737.791962 723.967879l6.655999-58.36799H279.552039l6.655999 58.36799h451.583924z" fill="#513D33" p-id="9021"></path><path d="M241.152045 604.330566m39.765327 0l461.99459 0q39.765327 0 39.765326 39.765327l0 0.170666q0 39.765327-39.765326 39.765327l-461.99459 0q-39.765327 0-39.765327-39.765327l0-0.170666q0-39.765327 39.765327-39.765327Z" fill="#7C6559" p-id="9022"></path></svg>