<?xml version="1.0" standalone="no"?><!DOCTYPE svg PUBLIC "-//W3C//DTD SVG 1.1//EN" "http://www.w3.org/Graphics/SVG/1.1/DTD/svg11.dtd"><svg t="1579423617552" class="icon" viewBox="0 0 1024 1024" version="1.1" xmlns="http://www.w3.org/2000/svg" p-id="12326" xmlns:xlink="http://www.w3.org/1999/xlink" width="200" height="200"><defs><style type="text/css"></style></defs><path d="M512.708023 362.788571c103.677074 0 200.921966 11.056274 273.078857 30.452298 75.062126 20.175726 118.668434 47.888091 118.668434 81.266102 0 0.712411-0.02048 1.42336-0.062903 2.156252l-0.073142 1.01376a37.541303 37.541303 0 0 1-0.447635 3.38944l-0.160914 0.848457c-0.09216 0.456411-0.193097 0.914286-0.304274 1.379474l-0.203337 0.804572c-0.114103 0.434469-0.236983 0.871863-0.370103 1.316571l-0.253075 0.810423c-0.146286 0.45056-0.298423 0.898194-0.4608 1.345829l-0.277942 0.751908c-0.169691 0.438857-0.34816 0.88064-0.535406 1.325349l-0.32768 0.75776c-0.196023 0.44032-0.400823 0.882103-0.6144 1.323885l-0.457874 0.9216-0.449098 0.855772c47.049874 47.142034 76.9536 108.962377 84.006035 176.054857 2.9696 5.643703 4.88448 11.9296 5.610057 18.509531 19.807086 14.52032 32.001463 39.400594 32.001463 66.463452 0 42.500389-29.783771 77.667474-67.968732 79.26784a293.981623 293.981623 0 0 1-55.263817 75.388343c7.716571 8.487497 7.203109 21.628343-1.205394 29.485348-51.919726 48.518583-205.951269 80.18944-383.926857 80.18944-178.47296 0-332.782446-31.834697-384.336457-80.571245-8.088137-7.646354-8.762514-20.191817-1.774446-28.645669a294.028434 294.028434 0 0 1-55.7056-75.802331C32.01024 833.097143 1.462857 797.576046 1.462857 754.535863c0-27.805989 12.874606-53.275794 33.578423-67.586926 0.810423-6.173257 2.67264-12.065646 5.474011-17.384594 7.027566-66.873051 36.7616-128.504686 83.529143-175.582354l1.421897-1.421898-0.345234-0.690468-0.427154-0.90112-0.263314-0.585143-0.289646-0.664137-0.212114-0.509074-0.283795-0.712412-0.310125-0.823588-0.294035-0.833829c-0.146286-0.428617-0.283794-0.857234-0.415451-1.287314l-0.157989-0.535406-0.220891-0.794331-0.18432-0.724115-0.207726-0.882103c-0.1024-0.4608-0.19456-0.923063-0.280868-1.39264l-0.171155-1.01376c-0.131657-0.848457-0.234057-1.696914-0.3072-2.545371l-0.073143-0.98304-0.045348-1.133714-0.014629-0.658286v-0.383269c0-33.378011 43.606309-61.090377 118.666972-81.266102C311.78752 373.843383 409.030949 362.788571 512.708023 362.788571z m0 17.554286c-102.228846 0-197.965531 10.883657-268.522057 29.8496-67.585463 18.167223-105.59488 42.297051-105.670949 64.248686l0.039497 1.307794 0.058515 0.719726c0.0512 0.500297 0.119954 0.996206 0.206262 1.480411l0.134583 0.687543 0.127269 0.564663 0.155063 0.602697 0.160914 0.567589 0.197486 0.621714 0.19456 0.566126 0.257463 0.681691 0.219428 0.544183 0.288183 0.652434 0.258926 0.560275 0.3584 0.718262 0.270628 0.516389 0.330606 0.590994 0.365714 0.633417 0.475429 0.766538 0.380343 0.59392 0.509074 0.738742 4.681143 6.556526-5.553006 5.254583c-47.915886 45.350034-78.270171 106.3424-84.831086 172.731246l-0.187245 1.891474-0.95232 1.644251c-2.6624 4.596297-4.234971 10.013257-4.490972 15.754972l-0.207725 4.722103-4.059429 2.423954C30.385006 709.999177 19.017143 731.080411 19.017143 754.535863c0 34.304 23.927954 61.770606 53.130971 61.770606 1.160046 0 2.311314-0.043886 3.45088-0.128732l5.934812-0.441783 2.606811 5.351132c15.345371 31.492389 36.602149 59.8016 62.522514 83.378468l13.344183 12.137326-17.783954 3.01056a3.46112 3.46112 0 0 0-1.790537 5.926034c47.240046 44.659566 198.059154 75.773074 372.2752 75.773075 173.759634 0 324.319817-30.956983 371.943131-75.460023a3.46112 3.46112 0 0 0-2.138697-5.98016l-20.762331-1.274149 15.399497-13.984914c25.971566-23.584183 47.272229-51.9168 62.643931-83.441372l2.536595-5.20192 5.778285 0.280869c0.75776 0.036571 1.516983 0.055589 2.280595 0.055589 29.203017 0 53.130971-27.465143 53.130971-61.770606 0-22.858606-10.795886-43.493669-27.628983-54.223726l-3.940937-2.511726-0.117029-4.670902c-0.149211-6.015269-1.7408-11.702857-4.517302-16.498103l-0.950858-1.644252-0.187245-1.891474c-6.524343-65.9968-36.559726-126.665874-84.004572-171.936914l-5.617371-5.359909 4.635794-6.230308c0.394971-0.53248 0.772389-1.06496 1.1264-1.594515l0.311589-0.472503c0.175543-0.272091 0.345234-0.541257 0.506148-0.807497l0.406675-0.68608 0.343771-0.610011 0.3584-0.67584 0.294034-0.589532 0.21504-0.45056c0.12288-0.26624 0.241371-0.531017 0.351086-0.789942l0.267703-0.656823 0.219428-0.579292 0.155063-0.438857c0.087771-0.254537 0.169691-0.507611 0.244297-0.751908l0.136046-0.465189c0.067291-0.239909 0.130194-0.476891 0.185783-0.705097l0.152137-0.669989 0.109714-0.555885 0.108252-0.650972c0.084846-0.5632 0.144823-1.122011 0.178468-1.667657l0.032183-0.681691 0.007315-0.561738c0-21.969189-38.016731-46.129737-105.670949-64.314514C710.673554 391.227977 614.936869 380.342857 512.708023 380.342857z" fill="#91000A" p-id="12327"></path><path d="M332.02176 416.197486h359.934537c157.04064 0 284.347246 127.306606 284.347246 284.348708 0 157.04064-127.306606 284.347246-284.347246 284.347246H332.02176c-157.042103 0-284.348709-127.306606-284.348709-284.347246 0-157.042103 127.306606-284.348709 284.348709-284.348708z" fill="#D8000F" p-id="12328"></path><path d="M222.358674 585.742629c76.407954 20.538514 179.893394 32.302811 290.349349 32.302811 110.455954 0 213.942857-11.76576 290.349348-32.304274 61.518994-16.536137 101.197531-37.708069 113.447498-59.65824a276.329326 276.329326 0 0 1 5.681737 7.551268c-15.642331 23.563703-56.404846 44.336274-116.850103 60.584229-77.2096 20.753554-181.448411 32.60416-292.62848 32.60416-111.180069 0-215.41888-11.850606-292.627017-32.60416-61.344914-16.489326-102.416091-37.639314-117.525943-61.631634a287.885897 287.885897 0 0 1 5.769508-7.59808c11.527314 22.342217 51.495497 43.942766 114.034103 60.752457z m4.616777-149.449875l-0.412525 0.1024c32.610011-13.031131 68.1984-20.197669 105.457371-20.197668l1.787612-0.002926c-39.143131 5.093669-75.209874 11.860846-106.832458 20.099657zM691.956297 416.197486c36.234971 0 70.890057 6.77888 102.759863 19.135634-30.72-7.804343-65.492114-14.24384-103.10656-19.13856l0.346697 0.002926z" fill="#FFE400" p-id="12329"></path><path d="M691.956297 416.197486c92.987977 0 175.550171 44.63616 227.4304 113.649371-32.330606 52.5312-202.102491 92.587154-406.678674 92.587154-205.96736 0-376.653531-40.603063-407.319406-93.656502C157.32736 460.371383 239.5136 416.197486 332.02176 416.197486h359.934537z" fill="#C40714" p-id="12330"></path><path d="M691.956297 984.89344h-359.936c-123.121371 0-227.965806-78.251154-267.512686-187.734309 130.023131 79.807634 283.018971 125.826194 446.76096 125.826195 164.517303 0 318.186057-46.455954 448.601235-126.962835-39.225051 110.08-144.367909 188.870949-267.913509 188.870949z m0-568.695954c64.877714 0 124.679314 21.727817 172.526446 58.303634H159.495314c47.847131-36.575817 107.650194-58.303634 172.527909-58.303634h359.934537z" fill="#C40714" p-id="12331"></path><path d="M511.268571 752.934034c39.050971 0 70.708663 31.657691 70.708663 70.708663 0 39.052434-31.656229 70.710126-70.708663 70.710126-39.050971 0-70.708663-31.657691-70.708662-70.710126 0-39.050971 31.656229-70.708663 70.708662-70.708663z m0 20.48c-27.74016 0-50.228663 22.488503-50.228662 50.228663 0 27.741623 22.488503 50.230126 50.228662 50.230126s50.228663-22.488503 50.228663-50.230126c0-27.74016-22.488503-50.228663-50.228663-50.228663z" fill="#FFE400" p-id="12332"></path><path d="M511.268571 752.934034c1.47456 0 2.937417 0.045349 4.388572 0.134583-37.00736 2.265966-66.320091 32.997669-66.320092 70.57408 0 37.577874 29.312731 68.309577 66.320092 70.575543-1.451154 0.087771-2.914011 0.134583-4.388572 0.134583-39.050971 0-70.708663-31.657691-70.708662-70.710126 0-39.050971 31.656229-70.708663 70.708662-70.708663z m8.777143 20.48c27.74016 0 50.228663 22.488503 50.228663 50.228663 0 27.741623-22.488503 50.230126-50.228663 50.230126-1.477486 0-2.943269-0.064366-4.388571-0.190172 25.686309-2.223543 45.840091-23.77728 45.840091-50.039954 0-26.261211-20.153783-47.816411-45.840091-50.039954 1.445303-0.124343 2.911086-0.188709 4.388571-0.188709z" fill="#FFA700" p-id="12333"></path><path d="M950.389029 683.8272c34.660937 0 62.069029 31.978057 62.069028 70.708663s-27.408091 70.708663-62.069028 70.708663-62.070491-31.978057-62.070492-70.708663 27.409554-70.708663 62.069029-70.708663z m0 20.48c-22.58944 0-41.590491 22.168137-41.590492 50.228663s19.001051 50.228663 41.589029 50.228663c22.590903 0 41.591954-22.168137 41.591954-50.228663s-19.002514-50.228663-41.590491-50.228663z" fill="#FFC500" p-id="12334"></path><path d="M950.389029 683.8272c1.477486 0 2.940343 0.058514 4.388571 0.172617-32.558811 2.562926-57.68192 33.455543-57.68192 70.536046 0 37.081966 25.123109 67.971657 57.680457 70.537508-1.448229 0.11264-2.911086 0.171154-4.388571 0.171155-34.659474 0-62.069029-31.978057-62.069029-70.708663s27.409554-70.708663 62.069029-70.708663z m8.777142 20.48c22.58944 0 41.589029 22.168137 41.589029 50.228663s-18.999589 50.228663-41.589029 50.228663c-1.480411 0-2.944731-0.095086-4.388571-0.280869 20.608731-2.647771 37.200457-23.72608 37.200457-49.947794 0-26.223177-16.591726-47.29856-37.200457-49.947794a34.362514 34.362514 0 0 1 4.388571-0.280869z" fill="#FFA700" p-id="12335"></path><path d="M72.148114 683.8272c34.660937 0 62.070491 31.978057 62.070492 70.708663s-27.409554 70.708663-62.069029 70.708663c-34.6624 0-62.071954-31.978057-62.071954-70.708663S37.487177 683.8272 72.148114 683.8272z m0 20.48c-22.58944 0-41.589029 22.168137-41.589028 50.228663s18.999589 50.228663 41.589028 50.228663 41.590491-22.168137 41.590492-50.228663-19.001051-50.228663-41.589029-50.228663z" fill="#FFC500" p-id="12336"></path><path d="M72.148114 683.8272c1.2288 0 2.448823 0.039497 3.658606 0.118491-32.914286 2.156251-58.414811 33.231726-58.414811 70.590172 0 37.358446 25.501989 68.432457 58.413348 70.590171-1.20832 0.078994-2.428343 0.118491-3.657143 0.118492-34.660937 0-62.069029-31.978057-62.069028-70.708663s27.408091-70.708663 62.069028-70.708663z m7.314286 20.48c22.58944 0 41.590491 22.168137 41.590491 50.228663s-19.001051 50.228663-41.589028 50.228663c-1.231726 0-2.451749-0.065829-3.657143-0.19456 20.945189-2.238171 37.931886-23.502263 37.931886-50.034103 0-26.53184-16.986697-47.795931-37.931886-50.034103a34.333257 34.333257 0 0 1 3.657143-0.19456z" fill="#FFA700" p-id="12337"></path><path d="M914.395429 694.0672a38.872503 33.113234 90 1 0 66.226468 0 38.872503 33.113234 90 1 0-66.226468 0Z" fill="#FFE400" p-id="12338"></path><path d="M947.508663 655.193234c1.7408 0 3.452343 0.157989 5.12 0.462263-15.857371 2.889143-27.993234 18.987886-27.993234 38.411703 0 19.423817 12.135863 35.521097 27.993234 38.41024-1.667657 0.304274-3.3792 0.462263-5.12 0.462263-18.28864 0-33.113234-17.403611-33.113234-38.872503s14.824594-38.873966 33.113234-38.873966z" fill="#FFA700" p-id="12339"></path><path d="M43.354697 694.0672a38.872503 33.113234 90 1 0 66.226469 0 38.872503 33.113234 90 1 0-66.226469 0Z" fill="#FFE400" p-id="12340"></path><path d="M76.467931 655.193234c1.487726 0 2.953509 0.117029 4.388572 0.339383-16.214309 2.520503-28.726126 18.812343-28.726126 38.534583s12.511817 36.01408 28.726126 38.534583a28.540343 28.540343 0 0 1-4.388572 0.33792c-18.28864 0-33.114697-17.403611-33.114697-38.872503s14.826057-38.873966 33.114697-38.873966z" fill="#FFA700" p-id="12341"></path><path d="M134.402926 931.917531c49.484069 46.780709 202.275109 78.17216 378.305097 78.17216 175.579429 0 328.083749-31.237851 377.936457-77.824a12.238263 12.238263 0 0 0-16.413257-18.154057l-0.298423 0.270629c-43.856457 40.983406-191.531886 71.230903-361.223314 71.230903-168.389486 0-315.070171-29.789623-360.156892-70.252252l-1.335588-1.2288a12.238263 12.238263 0 1 0-16.81408 17.785417z" fill="#FFC600" p-id="12342"></path><path d="M129.737874 474.506971a382.970149 102.941257 0 1 0 765.940297 0 382.970149 102.941257 0 1 0-765.940297 0Z" fill="#FFC600" p-id="12343"></path><path d="M511.268571 760.295131m-38.872502 0a38.872503 38.872503 0 1 0 77.745005 0 38.872503 38.872503 0 1 0-77.745005 0Z" fill="#FFE400" p-id="12344"></path><path d="M511.268571 721.422629c1.989486 0 3.943863 0.149211 5.851429 0.437394-18.692389 2.820389-33.021074 18.95424-33.021074 38.435108 0 19.479406 14.328686 35.613257 33.021074 38.435109-1.907566 0.288183-3.861943 0.437394-5.851429 0.437394-21.468891 0-38.872503-17.403611-38.872502-38.872503s17.403611-38.873966 38.872502-38.873965z" fill="#FFA700" p-id="12345"></path><path d="M154.212937 474.506971a358.495086 78.466194 0 1 0 716.990172 0 358.495086 78.466194 0 1 0-716.990172 0Z" fill="#FFFFFF" p-id="12346"></path><path d="M937.314011 94.818011l0.21504-0.209188 0.373029-0.339383c8.665966-7.555657 22.652343-0.7168 35.75808 12.080274l0.892343 0.88064 0.88064 0.892343c12.797074 13.105737 19.635931 27.092114 12.080274 35.75808l-0.339383 0.373029-0.209188 0.21504-176.66048 176.661943 0.684617 0.26624 2.154788 0.827977c9.476389 3.657143 15.248823 13.794743 12.27776 23.284297-1.506743 4.733806-5.026377 8.46848-9.64608 10.37312l-65.458468 28.957257a64.305737 64.305737 0 0 1-18.110172 55.313554c-25.134811 25.136274-65.890011 25.136274-91.026285 0s-25.136274-65.891474 0-91.027748a64.292571 64.292571 0 0 1 54.024777-18.291566l30.026606-65.620846c4.186697-9.801143 15.658423-13.054537 24.897828-7.542491 3.971657 2.374217 7.080229 6.105966 8.750812 10.488686l0.582217 1.527222 0.836754 2.1504L937.314011 94.816549z m-121.706788 261.134629l-3.265097-8.148114 3.551817 8.026697-0.28672 0.119954zM972.589349 134.018194a19.423817 19.423817 0 0 0-0.816275-1.813943c-1.881234-3.701029-5.317486-8.246126-9.634377-12.561554-4.315429-4.316891-8.859063-7.753143-12.561554-9.634377a19.423817 19.423817 0 0 0-1.813943-0.816274L755.789531 301.173029l-5.770971-9.695818c-1.862217-3.130514-4.030171-7.96672-6.656-14.752914l-0.892343-2.333257a3.452343 3.452343 0 0 0-1.132251-1.511131l-0.207726-0.137509-0.029257-0.017554-35.832686 78.309668-7.084617-1.784685c-15.880777-3.999451-32.797257 0.497371-44.587886 12.288-18.281326 18.281326-18.281326 47.921737 0 66.2016 18.279863 18.281326 47.920274 18.281326 66.2016 0 12.077349-12.077349 16.489326-29.527771 11.995429-45.692343l-2.033372-7.308435 78.692938-34.810148a3.254857 3.254857 0 0 0-1.594515-1.312183l-2.311314-0.889417c-5.715383-2.220617-9.985463-4.047726-12.956526-5.561783l-0.718263-0.373029-10.488685-5.564708L972.590811 134.019657z m-23.078035-26.580114l-1.913417-2.048-1.964617-2.254263 2.110903 2.110903 1.91488 2.050926-0.147749 0.140434zM42.88512 53.767314l-0.34816-0.365714-0.201874-0.222354c-7.554194-8.665966-0.715337-22.652343 12.080274-35.75808l0.882103-0.892343 0.892343-0.88064C69.295543 2.851109 83.280457-3.987749 91.947886 3.566446l0.222354 0.201874 0.149211 0.138971 0.216503 0.209189L269.194971 180.775497l0.267703-0.683154 0.827977-2.154789c3.65568-9.476389 13.794743-15.248823 23.284298-12.27776 4.732343 1.506743 8.467017 5.026377 10.37312 9.64608l28.957257 65.458469a64.305737 64.305737 0 0 1 55.312091 18.110171c25.136274 25.134811 25.136274 65.888549 0 91.024823-25.136274 25.137737-65.890011 25.137737-91.026286 0a64.292571 64.292571 0 0 1-18.293028-54.023314l-65.620846-30.026606c-9.801143-4.186697-13.053074-15.658423-7.541028-24.897828 2.374217-3.971657 6.104503-7.080229 10.488685-8.750812l1.52576-0.582217 0.735817-0.283794 1.414583-0.55296L42.88512 53.767314z m261.133166 121.706789l-8.148115 3.263634 8.026698-3.550354 0.052662 0.118491 0.068755 0.168229zM80.338651 16.738011l-0.147748-0.140434 1.911954-2.048L84.216686 12.434286l-1.964617 2.2528-1.913418 2.048z m1.746652 1.753966c-0.520777 0.198949-1.132251 0.47104-1.813943 0.816274-3.701029 1.881234-8.244663 5.317486-12.561554 9.632915-4.315429 4.316891-7.753143 8.860526-9.632915 12.563017-0.345234 0.680229-0.617326 1.293166-0.816274 1.813943l191.97952 191.975131-10.049828 5.978697c-3.137829 1.815406-7.86432 3.920457-14.398903 6.446812l-2.333257 0.892343a3.452343 3.452343 0 0 0-1.511132 1.133714l-0.156526 0.236983 78.311132 35.832685-1.784686 7.084618c-3.999451 15.880777 0.497371 32.797257 12.288 44.587885 18.281326 18.281326 47.920274 18.281326 66.2016 0s18.281326-47.920274 0-66.2016c-12.077349-12.077349-29.527771-16.489326-45.692343-11.995428l-7.309897 2.033371-34.808686-78.692937a3.254857 3.254857 0 0 0-1.313645 1.594514c-2.823314 7.402057-5.049783 12.642011-6.822766 15.986103l-5.564709 10.488686L82.085303 18.490514z m-26.580114 23.078034l-2.048 1.913418-2.2528 1.964617 2.110902-2.112366 2.049463-1.913417 0.141897 0.147748z" fill="#91000A" p-id="12347"></path><path d="M61.505829 22.740114c10.283886-10.283886 21.397211-15.84128 24.824685-12.412343l196.534857 196.534858-37.237028 37.238491L49.093486 47.566263l-0.140435-0.150674c-3.130514-3.591314 2.413714-14.537874 12.551315-24.675475z" fill="#FFE400" p-id="12348"></path><path d="M61.505829 22.740114a77.736229 77.736229 0 0 1 4.289097-3.981897c-7.538103 8.772754-11.258149 17.29536-8.566492 20.381989l0.138972 0.150674 196.534857 196.534857-8.27392 8.275383L49.093486 47.566263l-0.140435-0.150674c-3.130514-3.591314 2.413714-14.537874 12.551315-24.675475z" fill="#FFC500" p-id="12349"></path><path d="M258.492709 202.079086c6.380983-0.639269 10.292663-1.682286 11.770148-3.159772 1.559406-1.559406 4.275931-7.4752 8.221257-17.8176 2.074331-5.378926 7.660983-8.566491 12.432823-7.072914 2.257189 0.7168 4.03456 2.413714 4.95616 4.714789l31.890286 72.095451c18.688-5.196069 39.558583-0.447634 54.25152 14.245303 21.7088 21.7088 21.7088 56.905143 0 78.613943-21.7088 21.7088-56.905143 21.7088-78.613943 0-14.350629-14.350629-19.214629-34.592183-14.593463-52.937875l-71.991588-32.94208c-4.827429-2.005577-6.426331-7.5264-3.54304-12.358217 1.356069-2.270354 3.531337-4.081371 6.057691-5.045394 10.114194-3.820983 16.059246-6.620891 17.905371-8.469943 1.755429-1.753966 2.914011-5.751954 3.507932-12.024686 0.9216-9.025829 8.723017-16.866743 17.748846-17.841005z" fill="#D8000F" p-id="12350"></path><path d="M219.33056 240.41472c1.00352-0.37888 1.96608-0.74752 2.88768-1.107383-0.314514 3.496229 1.487726 6.732069 4.941531 8.167132l71.991589 32.94208c-4.621166 18.344229 0.244297 38.588709 14.593463 52.937874 19.954834 19.954834 51.308251 21.566903 73.104823 4.834743a56.107886 56.107886 0 0 1-4.834743 5.50912c-21.7088 21.7088-56.905143 21.7088-78.613943 0-14.350629-14.350629-19.214629-34.592183-14.593463-52.937875l-71.991588-32.94208c-4.827429-2.005577-6.426331-7.5264-3.54304-12.358217 1.356069-2.270354 3.531337-4.081371 6.057691-5.045394z m68.36224-66.719451l-0.083383 0.213577c-3.291429 8.401189-5.608594 13.273966-7.002697 14.666605-0.969874 0.971337-2.99008 1.753966-6.070857 2.358126 1.141029-2.647771 2.4576-5.924571 3.946788-9.831863 1.619383-4.195474 5.373074-7.056823 9.210149-7.406445z m-34.982766 29.99296l-0.095085 0.207725a18.702629 18.702629 0 0 0-1.527223 5.678812c-0.59392 6.274194-1.752503 10.272183-3.506469 12.027611-1.10592 1.104457-3.677623 2.551223-7.7312 4.353463 0.375954-1.69984 0.672914-3.712731 0.893806-6.035749 0.7168-7.017326 5.59104-13.317851 11.966171-16.231862z" fill="#C40714" p-id="12351"></path><path d="M968.3456 113.437257c10.283886 10.283886 15.84128 21.397211 12.412343 24.824686l-196.534857 196.534857-37.238492-37.237029 196.534857-196.534857 0.150675-0.140434c3.591314-3.130514 14.537874 2.413714 24.675474 12.551314z" fill="#FFE400" p-id="12352"></path><path d="M968.3456 113.437257a77.736229 77.736229 0 0 1 3.981897 4.289097c-8.772754-7.538103-17.29536-11.258149-20.381988-8.566491l-0.150675 0.138971-196.534857 196.534857-8.275383-8.27392 196.534857-196.534857 0.150675-0.140434c3.591314-3.130514 14.537874 2.413714 24.675474 12.551314z" fill="#FFC500" p-id="12353"></path><path d="M789.006629 310.424137c0.639269 6.380983 1.682286 10.292663 3.159771 11.770149 1.559406 1.559406 7.4752 4.275931 17.8176 8.221257 5.378926 2.074331 8.566491 7.660983 7.072914 12.432823-0.7168 2.257189-2.413714 4.03456-4.714788 4.95616l-72.095452 31.890285c5.196069 18.688 0.447634 39.558583-14.245303 54.25152-21.7088 21.7088-56.905143 21.7088-78.613942 0-21.7088-21.7088-21.7088-56.905143 0-78.613942 14.350629-14.350629 34.592183-19.214629 52.937874-14.593463l32.94208-71.991589c2.005577-4.827429 7.5264-6.426331 12.358217-3.54304 2.270354 1.356069 4.081371 3.531337 5.045394 6.057692 3.820983 10.114194 6.620891 16.059246 8.469943 17.905371 1.753966 1.755429 5.751954 2.914011 12.024686 3.507931 9.025829 0.9216 16.866743 8.723017 17.841006 17.748846z" fill="#D8000F" p-id="12354"></path><path d="M750.670994 271.261989c0.37888 1.00352 0.74752 1.96608 1.107383 2.88768-3.496229-0.314514-6.732069 1.487726-8.167131 4.941531l-32.94208 71.991589c-18.344229-4.621166-38.588709 0.244297-52.937875 14.593462-19.954834 19.954834-21.566903 51.308251-4.834742 73.104823a56.107886 56.107886 0 0 1-5.50912-4.834743c-21.7088-21.7088-21.7088-56.905143 0-78.613942 14.350629-14.350629 34.592183-19.214629 52.937874-14.593463l32.94208-71.991589c2.005577-4.827429 7.5264-6.426331 12.358217-3.54304 2.270354 1.356069 4.081371 3.531337 5.045394 6.057692z m66.719452 68.36224l-0.213577-0.083383c-8.401189-3.291429-13.273966-5.608594-14.666606-7.002697-0.971337-0.969874-1.753966-2.99008-2.358126-6.070858 2.647771 1.141029 5.924571 2.4576 9.831863 3.946789 4.195474 1.619383 7.056823 5.373074 7.406446 9.210149z m-29.99296-34.982766l-0.207726-0.095086a18.701166 18.701166 0 0 0-5.678811-1.527223c-6.274194-0.59392-10.272183-1.752503-12.027612-3.506468-1.104457-1.10592-2.551223-3.677623-4.353463-7.7312 1.69984 0.375954 3.712731 0.672914 6.035749 0.893805 7.017326 0.7168 13.317851 5.59104 16.231863 11.966172z" fill="#C40714" p-id="12355"></path></svg>